<svg xmlns="http://www.w3.org/2000/svg" width="828" height="304" viewBox="0 0 828 304">
<g>
<path d="M 37.00 284.18 L 37.00 280.36 L 44.75 279.16 C55.94,277.43 60.91,274.67 64.00,268.50 L 66.50 263.50 L 66.50 159.50 C66.50,56.70 66.48,55.46 64.46,52.04 C61.61,47.17 57.43,45.08 47.29,43.43 C42.45,42.65 38.16,42.01 37.75,42.00 C37.34,42.00 37.00,40.16 37.00,37.92 L 37.00 33.83 L 100.75 34.29 C160.55,34.71 165.21,34.87 175.89,36.87 C212.78,43.80 243.35,61.35 262.21,86.44 C267.75,93.82 277.95,112.77 277.99,115.75 C278.00,116.71 273.16,117.00 257.12,117.00 L 236.24 117.00 L 235.14 112.65 C233.33,105.45 225.24,90.41 219.04,82.72 C205.62,66.07 185.12,54.08 161.30,48.95 C153.42,47.25 146.66,46.73 126.83,46.29 L 102.17 45.74 L 101.09 49.62 C99.67,54.74 99.62,235.54 101.04,245.50 C103.16,260.43 110.09,268.27 123.94,271.42 C141.71,275.46 170.04,270.76 188.00,260.78 C203.74,252.03 218.05,238.20 226.91,223.18 L 232.33 214.00 L 253.68 214.00 L 275.04 214.00 L 272.91 218.25 C265.33,233.34 248.21,252.40 233.50,262.13 C219.28,271.53 199.23,279.86 182.00,283.53 C163.03,287.56 155.27,287.96 95.25,287.98 L 37.00 288.00 L 37.00 284.18 ZM 316.25 197.78 L 308.00 195.69 L 308.00 186.77 C308.00,179.10 308.23,177.90 309.61,178.18 C310.51,178.36 312.09,180.82 313.17,183.71 C315.53,190.04 319.40,193.48 326.51,195.55 C335.32,198.11 343.55,195.57 346.48,189.39 C350.06,181.86 347.17,176.52 337.36,172.52 C313.84,162.92 309.00,158.90 309.00,149.01 C309.00,140.68 314.67,134.33 324.23,131.95 C329.79,130.57 348.17,131.13 352.25,132.82 C354.91,133.91 355.00,134.20 355.00,141.56 C355.00,150.03 353.62,151.14 351.32,144.51 C350.58,142.38 349.20,139.75 348.24,138.68 C342.23,131.92 325.90,132.75 322.28,140.00 C318.60,147.37 322.88,152.95 336.00,157.86 C353.20,164.30 358.21,167.64 360.11,173.97 C364.36,188.15 351.51,200.10 332.21,199.93 C327.92,199.90 320.84,198.94 316.25,197.78 ZM 597.21 193.76 C594.62,190.88 589.54,185.36 585.91,181.51 C582.29,177.65 573.57,168.20 566.53,160.50 C559.49,152.80 553.35,146.35 552.87,146.17 C552.39,145.98 552.00,155.79 552.00,167.96 L 552.00 190.09 L 554.47 192.57 C555.84,193.93 558.32,195.31 560.00,195.65 C567.11,197.07 563.18,198.00 550.06,198.00 C536.45,198.00 531.85,196.92 539.95,195.62 C546.87,194.52 547.00,193.94 547.00,164.97 C547.00,136.46 546.94,136.16 540.50,135.12 C538.39,134.77 536.48,133.93 536.25,133.25 C535.93,132.30 538.58,132.00 547.28,132.00 L 558.72 132.00 L 572.11 146.66 C579.47,154.72 589.21,165.41 593.75,170.41 C598.28,175.41 602.47,179.66 603.06,179.85 C603.79,180.10 604.02,173.82 603.81,159.64 C603.46,136.63 603.34,136.23 596.40,135.10 C594.35,134.77 592.48,133.93 592.25,133.25 C591.93,132.29 595.03,132.00 605.50,132.00 C615.99,132.00 619.07,132.29 618.76,133.25 C618.53,133.94 617.03,134.65 615.42,134.83 C608.92,135.58 609.00,135.14 609.00,168.65 L 609.00 199.00 L 605.46 199.00 C602.45,199.00 601.20,198.21 597.21,193.76 ZM 175.00 197.06 C175.00,196.48 176.15,196.00 177.55,196.00 C178.95,196.00 181.20,194.90 182.55,193.55 L 185.00 191.09 L 185.00 165.24 C185.00,136.80 184.91,136.34 179.03,135.14 C177.17,134.76 175.47,133.90 175.24,133.22 C174.93,132.29 179.36,132.00 194.17,132.01 C230.98,132.02 243.86,136.24 250.61,150.50 C253.49,156.58 253.85,167.78 251.43,175.93 C249.25,183.27 240.77,191.86 232.50,195.11 C226.84,197.33 225.02,197.49 200.75,197.80 C183.05,198.02 175.00,197.79 175.00,197.06 ZM 221.17 193.03 C233.99,189.07 240.26,177.02 238.11,160.50 C237.03,152.24 235.90,149.05 232.42,144.48 C228.12,138.85 222.26,136.70 209.81,136.19 L 199.00 135.74 L 199.00 163.25 C199.00,193.47 198.80,192.49 205.26,194.03 C210.72,195.32 214.52,195.08 221.17,193.03 ZM 262.50 197.00 C262.84,196.45 264.17,196.00 265.45,196.00 C266.73,196.00 268.84,195.14 270.14,194.09 C272.50,192.18 272.50,192.13 272.81,166.01 C273.17,136.27 272.98,135.37 266.34,134.81 C264.32,134.64 262.47,133.94 262.24,133.25 C261.93,132.28 265.70,132.00 278.92,132.00 C293.44,132.00 296.00,132.23 296.00,133.50 C296.00,134.55 294.95,135.00 292.52,135.00 C286.10,135.00 285.87,136.18 286.20,166.35 C286.48,191.56 286.60,192.99 288.50,194.43 C289.60,195.26 291.74,195.95 293.25,195.97 C294.76,195.99 296.00,196.45 296.00,197.00 C296.00,197.63 289.65,198.00 278.94,198.00 C267.82,198.00 262.10,197.65 262.50,197.00 ZM 369.00 197.13 C369.00,196.65 370.79,195.97 372.97,195.62 C375.40,195.23 377.34,194.24 377.97,193.06 C379.24,190.68 379.35,139.11 378.09,137.11 C377.60,136.34 375.51,135.44 373.44,135.11 C371.36,134.77 369.48,133.93 369.25,133.25 C368.93,132.28 372.64,132.00 385.50,132.00 C398.36,132.00 402.07,132.28 401.75,133.25 C401.52,133.93 399.64,134.77 397.56,135.11 C395.49,135.44 393.39,136.34 392.89,137.11 C392.40,137.87 392.11,143.68 392.25,150.00 L 392.50 161.50 L 410.75 161.77 L 429.00 162.05 L 428.98 150.27 C428.98,143.80 428.62,137.95 428.19,137.28 C427.77,136.61 425.67,135.69 423.53,135.25 C421.40,134.80 419.46,133.89 419.24,133.22 C418.93,132.29 422.93,132.00 436.00,132.00 C449.26,132.00 453.07,132.28 452.75,133.25 C452.52,133.93 450.64,134.77 448.56,135.11 C446.49,135.44 444.40,136.34 443.91,137.11 C442.85,138.78 442.72,191.03 443.77,192.60 C444.86,194.23 448.58,196.00 450.93,196.00 C452.07,196.00 453.00,196.45 453.00,197.00 C453.00,197.63 446.67,198.00 436.00,198.00 C425.33,198.00 419.00,197.63 419.00,197.00 C419.00,196.45 420.25,196.00 421.78,196.00 C423.31,196.00 425.56,195.30 426.78,194.44 C428.89,192.97 429.00,192.20 429.00,179.44 L 429.00 166.00 L 410.50 166.00 L 392.00 166.00 L 392.00 178.55 C392.00,190.53 392.11,191.20 394.45,193.55 C395.80,194.90 398.05,196.00 399.45,196.00 C400.85,196.00 402.00,196.45 402.00,197.00 C402.00,197.63 395.83,198.00 385.50,198.00 C376.42,198.00 369.00,197.61 369.00,197.13 ZM 455.00 197.00 C455.00,196.45 456.08,196.00 457.39,196.00 C462.48,196.00 465.14,191.52 478.04,161.25 L 490.50 132.00 L 495.50 132.00 L 500.51 132.00 L 503.18 138.75 C509.28,154.15 525.25,191.59 526.21,192.75 C526.77,193.43 528.97,194.51 531.09,195.14 C533.20,195.78 534.70,196.68 534.41,197.15 C533.65,198.38 501.00,198.24 501.00,197.00 C501.00,196.45 502.02,196.00 503.28,196.00 C505.94,196.00 509.99,193.41 510.02,191.69 C510.03,191.04 508.80,187.24 507.29,183.25 L 504.54 176.00 L 490.78 176.00 L 477.03 176.00 L 475.45 179.75 C474.58,181.81 473.35,185.46 472.70,187.85 C471.61,191.92 471.68,192.33 473.88,194.10 C475.17,195.15 477.30,196.00 478.61,196.00 C479.92,196.00 481.00,196.45 481.00,197.00 C481.00,197.62 476.00,198.00 468.00,198.00 C460.00,198.00 455.00,197.62 455.00,197.00 ZM 501.41 171.15 C501.96,170.25 496.82,156.64 492.96,148.79 L 490.64 144.08 L 486.81 152.55 C481.65,163.97 479.12,170.78 479.78,171.45 C480.68,172.35 500.84,172.07 501.41,171.15 ZM 625.00 197.13 C625.00,196.65 626.79,195.97 628.97,195.62 C631.40,195.23 633.34,194.24 633.97,193.06 C635.24,190.68 635.35,139.11 634.09,137.11 C633.60,136.34 631.51,135.44 629.44,135.11 C627.36,134.77 625.47,133.92 625.24,133.22 C624.91,132.22 628.34,132.01 641.41,132.23 C651.59,132.39 658.02,132.89 658.05,133.50 C658.07,134.05 656.47,134.77 654.49,135.10 C652.52,135.43 650.46,136.14 649.92,136.68 C649.35,137.25 649.06,143.58 649.22,151.95 L 649.50 166.25 L 662.23 155.12 C669.23,149.00 675.73,142.82 676.66,141.39 C678.77,138.18 677.55,135.72 673.48,135.00 C671.93,134.73 670.48,133.94 670.25,133.25 C669.93,132.29 673.31,132.00 685.00,132.00 C696.36,132.00 700.07,132.30 699.77,133.20 C699.55,133.86 697.24,134.94 694.65,135.61 C689.29,136.97 683.04,141.52 671.50,152.43 L 663.50 160.00 L 671.00 167.12 C694.38,189.33 701.02,194.18 709.95,195.61 C718.22,196.93 713.57,198.00 699.56,198.00 L 685.12 198.00 L 678.65 192.25 C675.10,189.09 667.65,182.34 662.11,177.25 C656.57,172.16 651.36,168.00 650.52,168.00 C649.24,168.00 649.00,169.97 649.00,180.38 C649.00,194.09 649.25,194.68 655.41,195.68 C663.63,197.01 657.93,198.00 642.00,198.00 C632.65,198.00 625.00,197.61 625.00,197.13 ZM 756.50 190.88 C749.90,187.03 743.96,183.35 743.31,182.69 C742.38,181.77 747.73,176.20 767.00,158.02 C780.68,145.11 791.74,134.40 791.56,134.23 C791.00,133.67 783.19,137.96 754.00,154.88 C738.33,163.97 723.44,172.52 720.93,173.88 L 716.35 176.36 L 703.68 169.54 C696.70,165.78 691.00,162.38 691.00,161.98 C691.00,161.57 692.69,160.79 694.75,160.25 C696.81,159.70 706.38,156.76 716.00,153.72 C725.62,150.68 738.90,146.54 745.50,144.53 C752.10,142.51 767.33,137.72 779.35,133.87 C791.37,130.02 801.39,127.06 801.62,127.29 C802.21,127.88 769.61,198.09 768.81,197.94 C768.64,197.91 763.10,194.74 756.50,190.88 ZM 728.08 192.40 C729.41,190.97 732.20,188.45 734.27,186.80 C737.43,184.28 738.30,184.00 739.59,185.08 C740.92,186.18 740.20,186.95 734.32,190.67 C726.52,195.60 724.59,196.13 728.08,192.40 ZM 723.38 184.96 L 721.27 178.92 L 731.88 172.58 C737.72,169.10 748.42,162.59 755.66,158.13 C774.00,146.80 774.53,147.13 759.50,160.52 C754.00,165.42 744.27,174.28 737.87,180.21 C731.47,186.15 726.07,191.00 725.87,191.00 C725.67,191.00 724.55,188.28 723.38,184.96 Z" fill="rgba(34,48,105,1)"/>
</g>
</svg>